Moderustic-SemiBold.ufo
<glyph name="quotesingle" format="2">
  <advance width="204"/>
  <unicode hex="0027"/>
  <outline>
    <contour>
      <point x="53" y="556" type="line"/>
      <point x="151" y="556" type="line"/>
      <point x="166" y="803" type="line"/>
      <point x="38" y="803" type="line"/>
    </contour>
  </outline>
</glyph>
<glyph name="J" format="2">
  <advance width="540"/>
  <unicode hex="004A"/>
  <anchor x="248" y="-20" name="bottom"/>
  <anchor x="413" y="719" name="top"/>
  <outline>
    <contour>
      <point x="0" y="122" type="line"/>
      <point x="67" y="25"/>
      <point x="141" y="-20"/>
      <point x="250" y="-20" type="curve" smooth="yes" name="dv01"/>
      <point x="400" y="-20"/>
      <point x="486" y="64"/>
      <point x="486" y="222" type="curve" smooth="yes"/>
      <point x="486" y="700" type="line" name="at01"/>
      <point x="340" y="700" type="line"/>
      <point x="340" y="239" type="line" smooth="yes"/>
      <point x="340" y="151"/>
      <point x="312" y="100"/>
      <point x="242" y="100" type="curve" smooth="yes" name="dv02"/>
      <point x="186" y="100"/>
      <point x="138" y="132"/>
      <point x="85" y="207" type="curve"/>
    </contour>
  </outline>
</glyph>
<glyph name="P" format="2">
  <advance width="628"/>
  <unicode hex="0050"/>
  <anchor x="322" y="719" name="top"/>
  <anchor x="322" y="-20" name="bottom"/>
  <outline>
    <contour>
      <point x="68" y="0" type="line"/>
      <point x="214" y="0" type="line" name="ab01"/>
      <point x="214" y="216" type="line" name="dv01"/>
      <point x="334" y="216" type="line" smooth="yes"/>
      <point x="499" y="216"/>
      <point x="605" y="311"/>
      <point x="605" y="459" type="curve" smooth="yes"/>
      <point x="605" y="606"/>
      <point x="500" y="700"/>
      <point x="334" y="700" type="curve" smooth="yes" name="at01"/>
      <point x="68" y="700" type="line"/>
    </contour>
    <contour>
      <point x="214" y="336" type="line" name="dv02"/>
      <point x="214" y="580" type="line" name="sv01"/>
      <point x="299" y="580" type="line" smooth="yes"/>
      <point x="410" y="580"/>
      <point x="459" y="543"/>
      <point x="459" y="457" type="curve" smooth="yes"/>
      <point x="459" y="372"/>
      <point x="411" y="336"/>
      <point x="299" y="336" type="curve" smooth="yes"/>
    </contour>
  </outline>
</glyph>
<glyph name="R" format="2">
  <advance width="648"/>
  <unicode hex="0052"/>
  <anchor x="324" y="719" name="top"/>
  <anchor x="324" y="-20" name="bottom"/>
  <outline>
    <contour>
      <point x="68" y="0" type="line"/>
      <point x="214" y="0" type="line" name="ab01"/>
      <point x="214" y="580" type="line" name="sv01"/>
      <point x="298" y="580" type="line" smooth="yes"/>
      <point x="415" y="580"/>
      <point x="463" y="548"/>
      <point x="463" y="472" type="curve" smooth="yes"/>
      <point x="463" y="396"/>
      <point x="415" y="364"/>
      <point x="298" y="364" type="curve" smooth="yes"/>
      <point x="100" y="364" type="line" name="dv02"/>
      <point x="100" y="244" type="line" name="dv01"/>
      <point x="348" y="244" type="line" smooth="yes"/>
      <point x="507" y="244"/>
      <point x="609" y="334"/>
      <point x="609" y="476" type="curve" smooth="yes"/>
      <point x="609" y="615"/>
      <point x="511" y="700"/>
      <point x="348" y="700" type="curve" smooth="yes" name="at01"/>
      <point x="68" y="700" type="line"/>
    </contour>
    <contour>
      <point x="469" y="0" type="line" name="ab02"/>
      <point x="627" y="0" type="line"/>
      <point x="457" y="333" type="line"/>
      <point x="326" y="281" type="line"/>
    </contour>
  </outline>
</glyph>
<glyph name="W" format="2">
  <advance width="960"/>
  <unicode hex="0057"/>
  <anchor x="480" y="719" name="top"/>
  <anchor x="480" y="-20" name="bottom"/>
  <outline>
    <contour>
      <point x="213" y="0" type="line"/>
      <point x="329" y="0" type="line"/>
      <point x="164" y="700" type="line"/>
      <point x="12" y="700" type="line"/>
    </contour>
    <contour>
      <point x="247" y="0" type="line"/>
      <point x="361" y="0" type="line"/>
      <point x="530" y="700" type="line"/>
      <point x="412" y="700" type="line"/>
    </contour>
    <contour>
      <point x="600" y="0" type="line"/>
      <point x="714" y="0" type="line"/>
      <point x="549" y="700" type="line"/>
      <point x="429" y="700" type="line"/>
    </contour>
    <contour>
      <point x="632" y="0" type="line"/>
      <point x="748" y="0" type="line"/>
      <point x="949" y="700" type="line"/>
      <point x="797" y="700" type="line"/>
    </contour>
  </outline>
</glyph>
<glyph name="Y" format="2">
  <advance width="662"/>
  <unicode hex="0059"/>
  <anchor x="331" y="719" name="top"/>
  <anchor x="331" y="-20" name="bottom"/>
  <anchor x="-85" y="500" name="topgr"/>
  <outline>
    <contour>
      <point x="258" y="0" type="line" name="ab01"/>
      <point x="404" y="0" type="line"/>
      <point x="404" y="285" type="line" name="iv04"/>
      <point x="644" y="700" type="line" name="at01"/>
      <point x="479" y="700" type="line"/>
      <point x="334" y="427" type="line" name="iv05"/>
      <point x="186" y="700" type="line" name="at02"/>
      <point x="18" y="700" type="line"/>
      <point x="258" y="285" type="line" name="iv01"/>
    </contour>
  </outline>
</glyph>
<glyph name="d" format="2">
  <advance width="597"/>
  <unicode hex="0064"/>
  <anchor x="275" y="-20" name="bottom"/>
  <anchor x="270" y="750" name="top"/>
  <anchor x="580" y="750" name="topright"/>
  <outline>
    <contour>
      <point x="397" y="0" type="line" name="ab03"/>
      <point x="542" y="0" type="line"/>
      <point x="542" y="750" type="line" name="ab01"/>
      <point x="397" y="750" type="line"/>
    </contour>
    <contour>
      <point x="249" y="-20" type="curve" smooth="yes" name="dv01"/>
      <point x="366" y="-20"/>
      <point x="429" y="89"/>
      <point x="429" y="255" type="curve" smooth="yes"/>
      <point x="429" y="423"/>
      <point x="361" y="520"/>
      <point x="243" y="520" type="curve" smooth="yes" name="at01"/>
      <point x="104" y="520"/>
      <point x="30" y="411"/>
      <point x="30" y="255" type="curve" smooth="yes"/>
      <point x="30" y="99"/>
      <point x="113" y="-20"/>
    </contour>
    <contour>
      <point x="285.498" y="90" type="curve" smooth="yes" name="dv02"/>
      <point x="218.195" y="90"/>
      <point x="175" y="154.201"/>
      <point x="175" y="255.517" type="curve" smooth="yes"/>
      <point x="175" y="352.821"/>
      <point x="216.186" y="410"/>
      <point x="286.502" y="410" type="curve" smooth="yes" name="sv01"/>
      <point x="353.805" y="410"/>
      <point x="397" y="348.809"/>
      <point x="397" y="256.52" type="curve" smooth="yes"/>
      <point x="397" y="153.197"/>
      <point x="354.81" y="90"/>
    </contour>
  </outline>
</glyph>
<glyph name="u" format="2">
  <advance width="580"/>
  <unicode hex="0075"/>
  <anchor x="396" y="-2" name="ogonek"/>
  <anchor x="290" y="520" name="top"/>
  <anchor x="290" y="-20" name="bottom"/>
  <outline>
    <contour>
      <point x="56" y="500" type="line" name="av01"/>
      <point x="56" y="185" type="line" smooth="yes"/>
      <point x="56" y="62"/>
      <point x="143" y="-20"/>
      <point x="290" y="-20" type="curve" smooth="yes" name="dv01"/>
      <point x="438" y="-20"/>
      <point x="523" y="65"/>
      <point x="523" y="185" type="curve" smooth="yes"/>
      <point x="523" y="500" type="line" name="av02"/>
      <point x="378" y="500" type="line"/>
      <point x="378" y="209.291" type="line" smooth="yes"/>
      <point x="378" y="124.083"/>
      <point x="347" y="90"/>
      <point x="290" y="90" type="curve" smooth="yes" name="dv02"/>
      <point x="236" y="90"/>
      <point x="201" y="121.076"/>
      <point x="201" y="209.291" type="curve" smooth="yes"/>
      <point x="201" y="500" type="line"/>
    </contour>
  </outline>
</glyph>
<glyph name="ordmasculine" format="2">
  <advance width="516"/>
  <unicode hex="00BA"/>
  <outline>
    <contour>
      <point x="258" y="317" type="curve" smooth="yes"/>
      <point x="380" y="317"/>
      <point x="453" y="393"/>
      <point x="453" y="523" type="curve" smooth="yes"/>
      <point x="453" y="631"/>
      <point x="379" y="720"/>
      <point x="258" y="720" type="curve" smooth="yes"/>
      <point x="137" y="720"/>
      <point x="64" y="631"/>
      <point x="64" y="523" type="curve" smooth="yes"/>
      <point x="64" y="393"/>
      <point x="138" y="317"/>
    </contour>
    <contour>
      <point x="257" y="396" type="curve" smooth="yes"/>
      <point x="202" y="396"/>
      <point x="161" y="434"/>
      <point x="161" y="525" type="curve" smooth="yes"/>
      <point x="161" y="604"/>
      <point x="201" y="641"/>
      <point x="256" y="641" type="curve" smooth="yes"/>
      <point x="312" y="641"/>
      <point x="356" y="610"/>
      <point x="356" y="522" type="curve" smooth="yes"/>
      <point x="356" y="436"/>
      <point x="313" y="396"/>
    </contour>
  </outline>
</glyph>
<glyph name="ccedilla" format="2">
  <advance width="564"/>
  <unicode hex="00E7"/>
  <anchor x="304" y="520" name="top"/>
  <anchor x="284" y="-218" name="bottom"/>
  <outline>
    <contour>
      <point x="444" y="145" type="line"/>
      <point x="415" y="111.389"/>
      <point x="371" y="90"/>
      <point x="315" y="90" type="curve" smooth="yes" name="dv02"/>
      <point x="210" y="90"/>
      <point x="185" y="163.459"/>
      <point x="185" y="255.031" type="curve" smooth="yes"/>
      <point x="185" y="359.686"/>
      <point x="223" y="410"/>
      <point x="298" y="410" type="curve" smooth="yes" name="sv01"/>
      <point x="353" y="410"/>
      <point x="405" y="390.648"/>
      <point x="436" y="355" type="curve"/>
      <point x="514" y="433" type="line"/>
      <point x="464" y="490"/>
      <point x="387" y="520"/>
      <point x="294" y="520" type="curve" smooth="yes" name="at01"/>
      <point x="132" y="520"/>
      <point x="40" y="416"/>
      <point x="40" y="255" type="curve" smooth="yes"/>
      <point x="40" y="84"/>
      <point x="132" y="-20"/>
      <point x="293" y="-20" type="curve" smooth="yes" name="dv01"/>
      <point x="396" y="-20"/>
      <point x="472" y="10"/>
      <point x="522" y="67" type="curve"/>
    </contour>
    <contour>
      <point x="167" y="-205" type="line"/>
      <point x="191" y="-213"/>
      <point x="225" y="-218"/>
      <point x="264" y="-218" type="curve" smooth="yes"/>
      <point x="359" y="-218"/>
      <point x="408" y="-188"/>
      <point x="408" y="-135" type="curve" smooth="yes"/>
      <point x="408" y="-89"/>
      <point x="372" y="-64"/>
      <point x="310" y="-64" type="curve"/>
      <point x="354.665" y="16.274" type="line"/>
      <point x="268.665" y="16.274" type="line"/>
      <point x="211" y="-96" type="line"/>
      <point x="227" y="-94"/>
      <point x="240" y="-92"/>
      <point x="254" y="-92" type="curve" smooth="yes"/>
      <point x="288" y="-92"/>
      <point x="308" y="-105"/>
      <point x="308" y="-132" type="curve" smooth="yes"/>
      <point x="308" y="-158"/>
      <point x="288" y="-172"/>
      <point x="255" y="-172" type="curve" smooth="yes"/>
      <point x="235" y="-172"/>
      <point x="207" y="-167"/>
      <point x="187" y="-161" type="curve"/>
    </contour>
  </outline>
</glyph>
<glyph name="dcroat" format="2">
  <advance width="635"/>
  <unicode hex="0111"/>
  <outline>
    <contour>
      <point x="417" y="0" type="line" name="ab03"/>
      <point x="562" y="0" type="line"/>
      <point x="562" y="750" type="line" name="ab01"/>
      <point x="417" y="750" type="line"/>
    </contour>
    <contour>
      <point x="269" y="-20" type="curve" smooth="yes" name="dv01"/>
      <point x="386" y="-20"/>
      <point x="449" y="89"/>
      <point x="449" y="255" type="curve" smooth="yes"/>
      <point x="449" y="423"/>
      <point x="381" y="520"/>
      <point x="263" y="520" type="curve" smooth="yes" name="at01"/>
      <point x="124" y="520"/>
      <point x="50" y="411"/>
      <point x="50" y="255" type="curve" smooth="yes"/>
      <point x="50" y="99"/>
      <point x="133" y="-20"/>
    </contour>
    <contour>
      <point x="305.498" y="90" type="curve" smooth="yes" name="dv02"/>
      <point x="238.195" y="90"/>
      <point x="195" y="154.201"/>
      <point x="195" y="255.517" type="curve" smooth="yes"/>
      <point x="195" y="352.821"/>
      <point x="236.186" y="410"/>
      <point x="306.502" y="410" type="curve" smooth="yes" name="sv01"/>
      <point x="373.805" y="410"/>
      <point x="417" y="348.809"/>
      <point x="417" y="256.52" type="curve" smooth="yes"/>
      <point x="417" y="153.197"/>
      <point x="374.81" y="90"/>
    </contour>
    <contour>
      <point x="226.455" y="631" type="line"/>
      <point x="637.447" y="631" type="line"/>
      <point x="637.447" y="665" type="line"/>
      <point x="226.455" y="665" type="line"/>
    </contour>
  </outline>
</glyph>
<glyph name="dotaccent" format="2">
  <advance width="211"/>
  <unicode hex="02D9"/>
  <outline>
    <contour>
      <point x="30" y="614" type="curve" smooth="yes"/>
      <point x="30" y="580"/>
      <point x="56" y="540"/>
      <point x="107" y="540" type="curve" smooth="yes" name="dv01"/>
      <point x="158" y="540"/>
      <point x="181" y="578"/>
      <point x="181" y="615" type="curve" smooth="yes"/>
      <point x="181" y="652"/>
      <point x="156" y="686"/>
      <point x="108" y="686" type="curve" smooth="yes" name="dv02"/>
      <point x="56" y="686"/>
      <point x="30" y="648"/>
    </contour>
  </outline>
</glyph>
<glyph name="ogonek" format="2">
  <advance width="209"/>
  <unicode hex="02DB"/>
  <outline>
    <contour>
      <point x="204" y="-180" type="line"/>
      <point x="161" y="-166"/>
      <point x="140" y="-135"/>
      <point x="140" y="-101" type="curve" smooth="yes"/>
      <point x="140" y="-64"/>
      <point x="164" y="-22"/>
      <point x="203" y="2" type="curve"/>
      <point x="170" y="5" type="line"/>
      <point x="81" y="-11"/>
      <point x="30" y="-53"/>
      <point x="30" y="-106" type="curve" smooth="yes"/>
      <point x="30" y="-156"/>
      <point x="74" y="-193"/>
      <point x="147" y="-203" type="curve"/>
    </contour>
  </outline>
</glyph>
<glyph name="tilde" format="2">
  <advance width="443"/>
  <unicode hex="02DC"/>
  <outline>
    <contour>
      <point x="129" y="584" type="line"/>
      <point x="131" y="609"/>
      <point x="140" y="619"/>
      <point x="158" y="619" type="curve" smooth="yes"/>
      <point x="195" y="619"/>
      <point x="229" y="580"/>
      <point x="290" y="580" type="curve" smooth="yes"/>
      <point x="348" y="580"/>
      <point x="391" y="616.618"/>
      <point x="391" y="686" type="curve"/>
      <point x="311" y="686" type="line"/>
      <point x="310" y="663"/>
      <point x="302" y="652"/>
      <point x="280" y="652" type="curve" smooth="yes"/>
      <point x="236" y="652"/>
      <point x="204" y="691"/>
      <point x="145" y="691" type="curve" smooth="yes"/>
      <point x="91" y="691"/>
      <point x="49" y="657.927"/>
      <point x="49" y="584" type="curve"/>
    </contour>
  </outline>
</glyph>
<glyph name="hungarumlaut" format="2">
  <advance width="389"/>
  <unicode hex="02DD"/>
  <outline>
    <contour>
      <point x="200" y="551" type="line"/>
      <point x="266" y="551" type="line"/>
      <point x="366" y="702" type="line"/>
      <point x="260" y="702" type="line"/>
    </contour>
    <contour>
      <point x="20" y="551" type="line"/>
      <point x="86" y="551" type="line"/>
      <point x="186" y="702" type="line"/>
      <point x="80" y="702" type="line"/>
    </contour>
  </outline>
</glyph>
<glyph name="alpha" format="2">
  <advance width="631"/>
  <unicode hex="03B1"/>
  <anchor x="290" y="520" name="topgr"/>
  <outline>
    <contour>
      <point x="580" y="0" type="line"/>
      <point x="580" y="110.711"/>
      <point x="560.026" y="212.448"/>
      <point x="524.592" y="296.014" type="curve" smooth="yes"/>
      <point x="466.89" y="432.1"/>
      <point x="368.193" y="520"/>
      <point x="248" y="520" type="curve" smooth="yes"/>
      <point x="119" y="520"/>
      <point x="30" y="420"/>
      <point x="30" y="250" type="curve" smooth="yes"/>
      <point x="30" y="80"/>
      <point x="120" y="-20"/>
      <point x="241" y="-20" type="curve" smooth="yes"/>
      <point x="373.273" y="-20"/>
      <point x="477.676" y="98.774"/>
      <point x="533.991" y="249" type="curve" smooth="yes"/>
      <point x="563.676" y="328.191"/>
      <point x="580" y="416.121"/>
      <point x="580" y="500" type="curve"/>
      <point x="434" y="500" type="line"/>
      <point x="434" y="423.204"/>
      <point x="433.805" y="334.33"/>
      <point x="420.777" y="259" type="curve" smooth="yes"/>
      <point x="404.287" y="163.651"/>
      <point x="367.238" y="90"/>
      <point x="284" y="90" type="curve" smooth="yes"/>
      <point x="212" y="90"/>
      <point x="176" y="144"/>
      <point x="176" y="249" type="curve" smooth="yes"/>
      <point x="176" y="357"/>
      <point x="214" y="410"/>
      <point x="283" y="410" type="curve" smooth="yes"/>
      <point x="354.529" y="410"/>
      <point x="392.41" y="354.204"/>
      <point x="412.466" y="279.565" type="curve" smooth="yes"/>
      <point x="435.87" y="192.464"/>
      <point x="435" y="79.702"/>
      <point x="435" y="0" type="curve"/>
    </contour>
  </outline>
</glyph>
<glyph name="lambda" format="2">
  <advance width="600"/>
  <unicode hex="03BB"/>
  <anchor x="300" y="721" name="topgr"/>
  <outline>
    <contour>
      <point x="24" y="0" type="line"/>
      <point x="169" y="0" type="line"/>
      <point x="281.038" y="294.223" type="line"/>
      <point x="220.21" y="510.964" type="line"/>
    </contour>
    <contour>
      <point x="561" y="105" type="line"/>
      <point x="543" y="96"/>
      <point x="532" y="95"/>
      <point x="524" y="95" type="curve" smooth="yes" name="dv02"/>
      <point x="499" y="95"/>
      <point x="462.286" y="105.046"/>
      <point x="442" y="180.738" type="curve" smooth="yes"/>
      <point x="341" y="557.585" type="line" smooth="yes"/>
      <point x="299.296" y="713.189"/>
      <point x="237" y="749"/>
      <point x="143" y="749" type="curve" smooth="yes" name="dv02"/>
      <point x="99" y="749"/>
      <point x="62" y="741.696"/>
      <point x="25" y="728" type="curve"/>
      <point x="46" y="627" type="line"/>
      <point x="63" y="634"/>
      <point x="83" y="639"/>
      <point x="104" y="639" type="curve" smooth="yes" name="dv01"/>
      <point x="162" y="639"/>
      <point x="189.326" y="603.088"/>
      <point x="211" y="522" type="curve" smooth="yes"/>
      <point x="296" y="204" type="line" smooth="yes"/>
      <point x="347.299" y="12.08"/>
      <point x="414" y="-20"/>
      <point x="485" y="-20" type="curve" smooth="yes" name="dv01"/>
      <point x="520" y="-20"/>
      <point x="546" y="-12"/>
      <point x="584" y="3" type="curve"/>
    </contour>
  </outline>
</glyph>
<glyph name="rho" format="2">
  <advance width="600"/>
  <unicode hex="03C1"/>
  <anchor x="312" y="520" name="topgr"/>
  <outline>
    <contour>
      <point x="63" y="-200" type="line"/>
      <point x="208" y="-200" type="line"/>
      <point x="208" y="274" type="line"/>
      <point x="63" y="251" type="line"/>
    </contour>
    <contour>
      <point x="79" y="250" type="line"/>
      <point x="105" y="229"/>
      <point x="137" y="199"/>
      <point x="161" y="192" type="curve"/>
      <point x="151" y="70"/>
      <point x="218" y="-20"/>
      <point x="340" y="-20" type="curve" smooth="yes"/>
      <point x="474" y="-20"/>
      <point x="570" y="90"/>
      <point x="570" y="256" type="curve" smooth="yes"/>
      <point x="570" y="421"/>
      <point x="475" y="520"/>
      <point x="315" y="520" type="curve" smooth="yes"/>
      <point x="146" y="520"/>
      <point x="63" y="409"/>
      <point x="63" y="247" type="curve"/>
    </contour>
    <contour>
      <point x="318" y="90" type="curve" smooth="yes"/>
      <point x="250" y="90"/>
      <point x="208" y="150"/>
      <point x="208" y="258" type="curve" smooth="yes"/>
      <point x="208" y="360"/>
      <point x="245" y="410"/>
      <point x="312" y="410" type="curve" smooth="yes"/>
      <point x="386" y="410"/>
      <point x="425" y="350"/>
      <point x="425" y="251" type="curve" smooth="yes"/>
      <point x="425" y="150"/>
      <point x="385" y="90"/>
    </contour>
  </outline>
</glyph>
<glyph name="Becyr" format="2">
  <advance width="613"/>
  <unicode hex="0411"/>
  <outline>
    <contour>
      <point x="108" y="579" type="line"/>
      <point x="535" y="579" type="line"/>
      <point x="535" y="700" type="line"/>
      <point x="75" y="700" type="line"/>
      <point x="75" y="693" type="line"/>
    </contour>
    <contour>
      <point x="67" y="0" type="line"/>
      <point x="333" y="0" type="line" smooth="yes"/>
      <point x="486" y="0"/>
      <point x="584" y="87.982"/>
      <point x="584" y="225.069" type="curve" smooth="yes"/>
      <point x="584" y="361.134"/>
      <point x="486" y="444"/>
      <point x="333" y="444" type="curve" smooth="yes"/>
      <point x="213" y="444" type="line"/>
      <point x="213" y="700" type="line"/>
      <point x="67" y="700" type="line"/>
    </contour>
    <contour>
      <point x="213" y="120" type="line"/>
      <point x="213" y="323" type="line"/>
      <point x="330" y="323" type="line" smooth="yes"/>
      <point x="407" y="323"/>
      <point x="438" y="288.29"/>
      <point x="438" y="224.13" type="curve" smooth="yes"/>
      <point x="438" y="159.969"/>
      <point x="407" y="120"/>
      <point x="330" y="120" type="curve" smooth="yes"/>
    </contour>
  </outline>
</glyph>
<glyph name="Zhecyr" format="2">
  <advance width="925"/>
  <unicode hex="0416"/>
  <anchor x="463" y="720" name="top"/>
  <outline>
    <contour>
      <point x="80" y="467" type="line"/>
      <point x="86.94" y="405.11"/>
      <point x="108.1" y="365.99"/>
      <point x="140.62" y="342.96" type="curve"/>
      <point x="16" y="0" type="line"/>
      <point x="170" y="0" type="line"/>
      <point x="284.89" y="315" type="line"/>
      <point x="390" y="315" type="line"/>
      <point x="390" y="0" type="line" name="av01"/>
      <point x="535" y="0" type="line"/>
      <point x="535" y="315" type="line"/>
      <point x="639.11" y="315" type="line"/>
      <point x="754" y="0" type="line"/>
      <point x="908" y="0" type="line"/>
      <point x="783.38" y="342.96" type="line"/>
      <point x="815.9" y="365.99"/>
      <point x="837.06" y="405.11"/>
      <point x="844" y="467" type="curve"/>
      <point x="865" y="700" type="line"/>
      <point x="723" y="700" type="line"/>
      <point x="709" y="554" type="line" smooth="yes"/>
      <point x="701" y="468"/>
      <point x="676" y="435"/>
      <point x="620" y="435" type="curve" smooth="yes"/>
      <point x="535" y="435" type="line"/>
      <point x="535" y="700" type="line" name="av02"/>
      <point x="390" y="700" type="line"/>
      <point x="390" y="435" type="line"/>
      <point x="304" y="435" type="line" smooth="yes"/>
      <point x="238" y="435"/>
      <point x="222" y="482"/>
      <point x="215" y="554" type="curve" smooth="yes"/>
      <point x="201" y="700" type="line"/>
      <point x="59" y="700" type="line"/>
    </contour>
  </outline>
</glyph>
<glyph name="gecyr" format="2">
  <advance width="431"/>
  <unicode hex="0433"/>
  <anchor x="231" y="520" name="top"/>
  <anchor x="231" y="-20" name="bottom"/>
  <outline>
    <contour>
      <point x="64" y="0" type="line"/>
      <point x="209" y="0" type="line"/>
      <point x="209" y="390" type="line"/>
      <point x="404" y="390" type="line"/>
      <point x="404" y="500" type="line"/>
      <point x="64" y="500" type="line"/>
    </contour>
  </outline>
</glyph>
<glyph name="decyr" format="2">
  <advance width="760"/>
  <unicode hex="0434"/>
  <anchor x="399" y="-20" name="bottom"/>
  <anchor x="400" y="520" name="top"/>
  <outline>
    <contour>
      <point x="133" y="-140" type="line"/>
      <point x="134" y="-107"/>
      <point x="120" y="0"/>
      <point x="179" y="0" type="curve" smooth="yes"/>
      <point x="576" y="0" type="line" smooth="yes"/>
      <point x="647" y="0"/>
      <point x="628" y="-102"/>
      <point x="628" y="-140" type="curve"/>
      <point x="734" y="-140" type="line"/>
      <point x="734" y="69"/>
      <point x="713" y="119"/>
      <point x="613" y="119" type="curve"/>
      <point x="613" y="500" type="line"/>
      <point x="197" y="500" type="line"/>
      <point x="197" y="334" type="line" smooth="yes"/>
      <point x="197" y="212"/>
      <point x="185" y="152"/>
      <point x="160" y="121" type="curve"/>
      <point x="60" y="121"/>
      <point x="26" y="74"/>
      <point x="26" y="-140" type="curve"/>
    </contour>
    <contour>
      <point x="249" y="120" type="line"/>
      <point x="321.838" y="136.414"/>
      <point x="342" y="177.118"/>
      <point x="342" y="380" type="curve"/>
      <point x="468" y="380" type="line"/>
      <point x="468" y="120" type="line"/>
    </contour>
  </outline>
</glyph>
<glyph name="pecyr" format="2">
  <advance width="618"/>
  <unicode hex="043F"/>
  <anchor x="309" y="-20" name="bottom"/>
  <anchor x="309" y="520" name="top"/>
  <outline>
    <contour>
      <point x="70" y="0" type="line"/>
      <point x="215" y="0" type="line"/>
      <point x="215" y="380" type="line"/>
      <point x="403" y="380" type="line"/>
      <point x="403" y="0" type="line"/>
      <point x="548" y="0" type="line"/>
      <point x="548" y="500" type="line"/>
      <point x="70" y="500" type="line"/>
    </contour>
  </outline>
</glyph>
<glyph name="tecyr" format="2">
  <advance width="525"/>
  <unicode hex="0442"/>
  <anchor x="262" y="-20" name="bottom"/>
  <anchor x="263" y="520" name="top"/>
  <outline>
    <contour>
      <point x="190" y="0" type="line"/>
      <point x="335" y="0" type="line"/>
      <point x="335" y="390" type="line"/>
      <point x="498" y="390" type="line"/>
      <point x="498" y="500" type="line"/>
      <point x="27" y="500" type="line"/>
      <point x="27" y="390" type="line"/>
      <point x="190" y="390" type="line"/>
    </contour>
  </outline>
</glyph>
<glyph name="tsecyr" format="2">
  <advance width="676"/>
  <unicode hex="0446"/>
  <outline>
    <contour>
      <point x="60" y="0" type="line"/>
      <point x="496" y="0" type="line" smooth="yes"/>
      <point x="563" y="0"/>
      <point x="549" y="-72"/>
      <point x="549" y="-140" type="curve"/>
      <point x="655" y="-140" type="line"/>
      <point x="655" y="69"/>
      <point x="634" y="118"/>
      <point x="534" y="118" type="curve"/>
      <point x="534" y="500" type="line"/>
      <point x="389" y="500" type="line"/>
      <point x="389" y="120" type="line"/>
      <point x="205" y="120" type="line"/>
      <point x="205" y="500" type="line"/>
      <point x="60" y="500" type="line"/>
    </contour>
  </outline>
</glyph>
<glyph name="shacyr" format="2">
  <advance width="859"/>
  <unicode hex="0448"/>
  <outline>
    <contour>
      <point x="60" y="0" type="line"/>
      <point x="799" y="0" type="line"/>
      <point x="799" y="500" type="line"/>
      <point x="654" y="500" type="line"/>
      <point x="654" y="120" type="line"/>
      <point x="502" y="120" type="line"/>
      <point x="502" y="500" type="line"/>
      <point x="357" y="500" type="line"/>
      <point x="357" y="120" type="line"/>
      <point x="205" y="120" type="line"/>
      <point x="205" y="500" type="line"/>
      <point x="60" y="500" type="line"/>
    </contour>
  </outline>
</glyph>
<glyph name="four.superior" format="2">
  <advance width="460"/>
  <unicode hex="2074"/>
  <outline>
    <contour>
      <point x="9" y="448" type="line"/>
      <point x="257" y="448" type="line"/>
      <point x="257" y="344" type="line"/>
      <point x="362" y="344" type="line"/>
      <point x="362" y="448" type="line"/>
      <point x="450" y="448" type="line"/>
      <point x="450" y="528" type="line"/>
      <point x="362" y="528" type="line"/>
      <point x="362" y="830" type="line"/>
      <point x="230" y="830" type="line"/>
      <point x="9" y="490" type="line"/>
    </contour>
    <contour>
      <point x="129" y="528" type="line"/>
      <point x="257" y="725" type="line"/>
      <point x="257" y="528" type="line"/>
    </contour>
  </outline>
</glyph>
<glyph name="product" format="2">
  <advance width="766"/>
  <unicode hex="220F"/>
  <outline>
    <contour>
      <point x="77.5" y="-125.366" type="line"/>
      <point x="222.5" y="-125.366" type="line"/>
      <point x="222.5" y="580" type="line"/>
      <point x="544" y="580" type="line"/>
      <point x="544" y="-125.366" type="line"/>
      <point x="689" y="-125.366" type="line"/>
      <point x="689" y="700" type="line"/>
      <point x="77.5" y="700" type="line"/>
    </contour>
  </outline>
</glyph>
<glyph name="Eng.ss09" format="2">
  <advance width="732"/>
  <anchor x="373" y="719" name="top"/>
  <anchor x="390" y="-186" name="bottom"/>
  <outline>
    <contour>
      <point x="67.5" y="0" type="line"/>
      <point x="212.5" y="0" type="line" name="ab01"/>
      <point x="212.5" y="468" type="line" name="iv01"/>
      <point x="528.5" y="0" type="line" name="ab02"/>
      <point x="664.937" y="129.137" type="line"/>
      <point x="664.937" y="700" type="line" name="at01"/>
      <point x="519.875" y="700" type="line"/>
      <point x="520.437" y="232" type="line" name="iv02"/>
      <point x="203.481" y="700" type="line" name="at02"/>
      <point x="67.5" y="700" type="line"/>
    </contour>
    <contour>
      <point x="196.25" y="-15" type="line"/>
      <point x="223.198" y="-165"/>
      <point x="290.996" y="-230"/>
      <point x="427.545" y="-230" type="curve" smooth="yes"/>
      <point x="592.741" y="-230"/>
      <point x="665.485" y="-135"/>
      <point x="665.312" y="42" type="curve" smooth="yes"/>
      <point x="664.875" y="490" type="line"/>
      <point x="520.312" y="490" type="line"/>
      <point x="520.312" y="45.259" type="line" smooth="yes"/>
      <point x="520.312" y="-73.94"/>
      <point x="487.175" y="-110"/>
      <point x="426.275" y="-110" type="curve" smooth="yes"/>
      <point x="375.225" y="-110"/>
      <point x="349.253" y="-84"/>
      <point x="339.25" y="-15" type="curve"/>
    </contour>
  </outline>
</glyph>
<glyph name="Eng.ss12" format="2">
  <advance width="732"/>
  <anchor x="362.25" y="720" name="top"/>
  <anchor x="342" y="-214" name="bottom"/>
  <outline>
    <contour>
      <point x="67.5" y="0" type="line"/>
      <point x="212.5" y="0" type="line" name="ab01"/>
      <point x="212.5" y="468" type="line" name="iv01"/>
      <point x="528.762" y="0" type="line" name="ab02"/>
      <point x="664.875" y="134.502" type="line"/>
      <point x="665" y="700" type="line" name="at01"/>
      <point x="519.5" y="700" type="line"/>
      <point x="519.5" y="232" type="line" name="iv02"/>
      <point x="203.5" y="700" type="line" name="at02"/>
      <point x="67.5" y="700" type="line"/>
    </contour>
    <contour>
      <point x="248.75" y="-179" type="line"/>
      <point x="295.68" y="-205"/>
      <point x="349.599" y="-230"/>
      <point x="438.465" y="-230" type="curve" smooth="yes"/>
      <point x="584.246" y="-230"/>
      <point x="665.125" y="-153"/>
      <point x="665.125" y="22" type="curve" smooth="yes"/>
      <point x="665.125" y="490" type="line"/>
      <point x="520.25" y="490" type="line"/>
      <point x="519.875" y="17" type="line" smooth="yes"/>
      <point x="519.793" y="-86"/>
      <point x="489.86" y="-110"/>
      <point x="410.822" y="-110" type="curve" smooth="yes"/>
      <point x="374.805" y="-110"/>
      <point x="323.78" y="-105"/>
      <point x="260.75" y="-80" type="curve"/>
    </contour>
  </outline>
</glyph>
<glyph name="Euro.ss09" format="2">
  <advance width="730"/>
  <outline>
    <contour>
      <point x="-4" y="379" type="line"/>
      <point x="453" y="379" type="line"/>
      <point x="481" y="439" type="line"/>
      <point x="217" y="439" type="line"/>
      <point x="229.839" y="414.074" type="line"/>
      <point x="240.44" y="539.724"/>
      <point x="299.647" y="599"/>
      <point x="398" y="599" type="curve" smooth="yes"/>
      <point x="484" y="599"/>
      <point x="537" y="540"/>
      <point x="547" y="485" type="curve"/>
      <point x="687" y="485" type="line"/>
      <point x="650" y="620"/>
      <point x="556" y="720"/>
      <point x="395" y="720" type="curve" smooth="yes"/>
      <point x="226.715" y="720"/>
      <point x="93.604" y="595.29"/>
      <point x="88.107" y="417.399" type="curve"/>
      <point x="104" y="439" type="line"/>
      <point x="24" y="439" type="line"/>
    </contour>
    <contour>
      <point x="-4" y="270" type="line"/>
      <point x="88" y="270" type="line"/>
      <point x="100" y="95"/>
      <point x="217" y="-20"/>
      <point x="381" y="-20" type="curve" smooth="yes"/>
      <point x="555" y="-20"/>
      <point x="658" y="106"/>
      <point x="687" y="261" type="curve"/>
      <point x="547" y="261" type="line"/>
      <point x="527" y="156"/>
      <point x="473" y="101"/>
      <point x="389" y="101" type="curve" smooth="yes"/>
      <point x="305" y="101"/>
      <point x="245" y="148"/>
      <point x="231" y="270" type="curve"/>
      <point x="445" y="270" type="line"/>
      <point x="473" y="330" type="line"/>
      <point x="24" y="330" type="line"/>
    </contour>
  </outline>
</glyph>
<glyph name="G.ss09" format="2">
  <advance width="780"/>
  <anchor x="380" y="-19" name="bottom"/>
  <anchor x="380" y="719" name="top"/>
  <outline>
    <contour>
      <point x="315" y="250" type="line" name="dv05"/>
      <point x="601" y="250" type="line" name="dv07"/>
      <point x="627" y="237" type="line"/>
      <point x="686" y="0" type="line" name="dv15"/>
      <point x="727" y="0" type="line" name="dv14"/>
      <point x="727" y="360" type="line" name="iv02"/>
      <point x="315" y="360" type="line" name="dv06"/>
    </contour>
    <contour>
      <point x="587" y="324" type="line" name="iv01"/>
      <point x="569" y="181.363"/>
      <point x="512" y="100"/>
      <point x="384" y="100" type="curve" smooth="yes" name="dv02"/>
      <point x="251" y="100"/>
      <point x="178" y="188.353"/>
      <point x="178" y="343.976" type="curve" smooth="yes" name="dv12"/>
      <point x="178" y="498.594"/>
      <point x="250" y="600"/>
      <point x="393" y="600" type="curve" smooth="yes" name="dv03"/>
      <point x="480" y="600"/>
      <point x="539" y="562.675"/>
      <point x="567" y="485" type="curve"/>
      <point x="710" y="485" type="line"/>
      <point x="662" y="637"/>
      <point x="553" y="720"/>
      <point x="391" y="720" type="curve" smooth="yes" name="dv04"/>
      <point x="168" y="720"/>
      <point x="33" y="564"/>
      <point x="33" y="351" type="curve" smooth="yes" name="dv11"/>
      <point x="33" y="128.4"/>
      <point x="164.2" y="-20"/>
      <point x="361" y="-20" type="curve" smooth="yes" name="dv01"/>
      <point x="512" y="-20"/>
      <point x="610" y="79"/>
      <point x="638" y="236" type="curve" name="dv10"/>
    </contour>
  </outline>
</glyph>
<glyph name="Germandbls.ss12" format="2">
  <advance width="693"/>
  <outline>
    <contour>
      <point x="633.848" y="624.113" type="line"/>
      <point x="554.299" y="684.23"/>
      <point x="442.109" y="720"/>
      <point x="339.842" y="720" type="curve" smooth="yes"/>
      <point x="151.99" y="720"/>
      <point x="56" y="623"/>
      <point x="56" y="489" type="curve" smooth="yes"/>
      <point x="56" y="0" type="line"/>
      <point x="202" y="0" type="line"/>
      <point x="202" y="467.596" type="line" smooth="yes"/>
      <point x="202" y="550"/>
      <point x="245.316" y="599"/>
      <point x="335.198" y="599" type="curve" smooth="yes"/>
      <point x="376.788" y="599"/>
      <point x="407.369" y="588.917"/>
      <point x="437.109" y="570.479" type="curve"/>
      <point x="485.818" y="642.391" type="line"/>
      <point x="409" y="549" type="line" smooth="yes"/>
      <point x="364.97" y="495.471"/>
      <point x="324" y="458"/>
      <point x="324" y="389.749" type="curve" smooth="yes"/>
      <point x="324" y="242"/>
      <point x="516" y="239.106"/>
      <point x="516" y="156.215" type="curve" smooth="yes"/>
      <point x="516" y="124"/>
      <point x="487" y="100"/>
      <point x="439.375" y="100" type="curve" smooth="yes"/>
      <point x="383.963" y="100"/>
      <point x="333.636" y="126.805"/>
      <point x="280.046" y="184.86" type="curve"/>
      <point x="265.272" y="79.508" type="line"/>
      <point x="308.523" y="11.928"/>
      <point x="377.975" y="-20"/>
      <point x="481.726" y="-20" type="curve" smooth="yes"/>
      <point x="599.979" y="-20"/>
      <point x="666" y="38.107"/>
      <point x="666" y="142.188" type="curve" smooth="yes"/>
      <point x="666" y="327.795"/>
      <point x="469" y="307"/>
      <point x="469" y="414" type="curve" smooth="yes"/>
      <point x="469" y="443"/>
      <point x="491.669" y="466.487"/>
      <point x="516" y="495" type="curve" smooth="yes"/>
      <point x="665.992" y="670.772" type="line"/>
    </contour>
  </outline>
</glyph>
<glyph name="J.ss12" format="2">
  <advance width="480"/>
  <anchor x="355" y="719" name="top"/>
  <anchor x="197" y="-20" name="bottom"/>
  <outline>
    <contour>
      <point x="9" y="31" type="line"/>
      <point x="55.944" y="5"/>
      <point x="109.879" y="-20"/>
      <point x="198.772" y="-20" type="curve" smooth="yes"/>
      <point x="344.597" y="-20"/>
      <point x="425.5" y="57"/>
      <point x="425.5" y="232" type="curve" smooth="yes"/>
      <point x="425.5" y="700" type="line"/>
      <point x="280.5" y="700" type="line"/>
      <point x="280.5" y="227" type="line" smooth="yes"/>
      <point x="280.5" y="124"/>
      <point x="250.442" y="100"/>
      <point x="171.29" y="100" type="curve" smooth="yes"/>
      <point x="135.22" y="100"/>
      <point x="84.122" y="105"/>
      <point x="21" y="130" type="curve"/>
    </contour>
  </outline>
</glyph>
<glyph name="a.ss01" format="2">
  <advance width="606"/>
  <anchor x="293" y="520" name="top"/>
  <anchor x="293" y="-20" name="bottom"/>
  <anchor x="623" y="-1" name="ogonek"/>
  <outline>
    <contour>
      <point x="241" y="-20" type="curve" smooth="yes" name="dv01"/>
      <point x="365" y="-20"/>
      <point x="430" y="79"/>
      <point x="430" y="248" type="curve" smooth="yes"/>
      <point x="430" y="423"/>
      <point x="360" y="520"/>
      <point x="232" y="520" type="curve" smooth="yes" name="at01"/>
      <point x="97" y="520"/>
      <point x="21" y="411"/>
      <point x="21" y="259" type="curve" smooth="yes"/>
      <point x="21" y="99"/>
      <point x="106" y="-20"/>
    </contour>
    <contour>
      <point x="282" y="90" type="curve" smooth="yes" name="dv02"/>
      <point x="211" y="90"/>
      <point x="166" y="152.194"/>
      <point x="166" y="254.514" type="curve" smooth="yes"/>
      <point x="166" y="353.824"/>
      <point x="209" y="410"/>
      <point x="279" y="410" type="curve" smooth="yes" name="sv01"/>
      <point x="353" y="410"/>
      <point x="398" y="348.809"/>
      <point x="398" y="250.502" type="curve" smooth="yes"/>
      <point x="398" y="153.197"/>
      <point x="354" y="90"/>
    </contour>
    <contour>
      <point x="601" y="104" type="line"/>
      <point x="591.211" y="96.282"/>
      <point x="574.021" y="90"/>
      <point x="559.621" y="90" type="curve" smooth="yes" name="dv02"/>
      <point x="545.712" y="90"/>
      <point x="543" y="110.03"/>
      <point x="543" y="175.129" type="curve" smooth="yes"/>
      <point x="543" y="500" type="line" name="ab01"/>
      <point x="398" y="500" type="line"/>
      <point x="398" y="132" type="line" smooth="yes"/>
      <point x="398" y="30"/>
      <point x="435" y="-20"/>
      <point x="526.267" y="-20" type="curve" smooth="yes" name="dv01"/>
      <point x="560.8" y="-20"/>
      <point x="586" y="-15"/>
      <point x="628" y="3" type="curve"/>
    </contour>
  </outline>
</glyph>
<glyph name="acutecomb.loclPLK" format="2">
  <advance width="287"/>
  <anchor x="139" y="700" name="top"/>
  <anchor x="123" y="500" name="_top"/>
  <outline>
    <contour>
      <point x="78" y="550" type="line"/>
      <point x="169" y="550" type="line"/>
      <point x="233" y="701" type="line"/>
      <point x="109" y="701" type="line"/>
    </contour>
  </outline>
</glyph>
<glyph name="ae.ss02" format="2">
  <advance width="875"/>
  <anchor x="429" y="500" name="top"/>
  <anchor x="429" y="0" name="bottom"/>
  <outline>
    <contour>
      <point x="120.04" y="355" type="line"/>
      <point x="150.42" y="390.64"/>
      <point x="197.46" y="410"/>
      <point x="247.44" y="410" type="curve" smooth="yes" name="sv01"/>
      <point x="306.24" y="410"/>
      <point x="331.78" y="382.93"/>
      <point x="331.78" y="330.8" type="curve" smooth="yes"/>
      <point x="331.78" y="235.85" type="line"/>
      <point x="305.65" y="284.47"/>
      <point x="256.32" y="312"/>
      <point x="193.54" y="312" type="curve" smooth="yes"/>
      <point x="93.58" y="312"/>
      <point x="24" y="243"/>
      <point x="24" y="146" type="curve" smooth="yes"/>
      <point x="24" y="49"/>
      <point x="93.58" y="-20"/>
      <point x="189.088" y="-20" type="curve" smooth="yes"/>
      <point x="260.2" y="-20"/>
      <point x="333.035" y="18.251"/>
      <point x="373.91" y="89.95" type="curve"/>
      <point x="417.43" y="20.12"/>
      <point x="494.32" y="-20"/>
      <point x="598.64" y="-20" type="curve" smooth="yes" name="dv01"/>
      <point x="688.85" y="-20"/>
      <point x="765.48" y="10"/>
      <point x="813.98" y="67" type="curve"/>
      <point x="738.32" y="145" type="line"/>
      <point x="708.47" y="109.35"/>
      <point x="661.29" y="90"/>
      <point x="604.48" y="90" type="curve" smooth="yes" name="dv02"/>
      <point x="518.78" y="90"/>
      <point x="476.42" y="134.33"/>
      <point x="476.42" y="222" type="curve" name="sv04"/>
      <point x="840.17" y="222" type="line" name="dv03"/>
      <point x="840.17" y="419"/>
      <point x="749.96" y="520"/>
      <point x="591.85" y="520" type="curve" smooth="yes" name="at01"/>
      <point x="525.98" y="520"/>
      <point x="469.39" y="502.33"/>
      <point x="426.05" y="468.94" type="curve"/>
      <point x="392.04" y="500.34"/>
      <point x="338.85" y="520"/>
      <point x="263.12" y="520" type="curve" smooth="yes" name="at01"/>
      <point x="169.04" y="520"/>
      <point x="92.6" y="490"/>
      <point x="43.59" y="433" type="curve"/>
    </contour>
    <contour>
      <point x="476.42" y="312" type="line" name="sv02"/>
      <point x="485.15" y="376.62"/>
      <point x="529.36" y="410"/>
      <point x="589.91" y="410" type="curve" smooth="yes" name="sv01"/>
      <point x="649.51" y="410"/>
      <point x="687.95" y="376.62"/>
      <point x="696.61" y="312" type="curve" name="dv04"/>
    </contour>
    <contour>
      <point x="331.75" y="164.647" type="curve"/>
      <point x="321.35" y="115.873"/>
      <point x="279.33" y="86"/>
      <point x="232.74" y="86" type="curve" smooth="yes"/>
      <point x="190.6" y="86"/>
      <point x="167.08" y="110.563"/>
      <point x="167.08" y="151.5" type="curve" smooth="yes"/>
      <point x="167.08" y="193.607"/>
      <point x="191.58" y="217"/>
      <point x="236.66" y="217" type="curve" smooth="yes"/>
      <point x="278.45" y="217"/>
      <point x="314.45" y="196.753"/>
    </contour>
  </outline>
</glyph>
<glyph name="b.ss11" format="2">
  <advance width="591"/>
  <anchor x="317" y="-20" name="bottom"/>
  <anchor x="302" y="750" name="top"/>
  <outline>
    <contour>
      <point x="45" y="-10" type="line"/>
      <point x="190" y="86" type="line"/>
      <point x="190" y="700" type="line"/>
      <point x="45" y="700" type="line"/>
    </contour>
    <contour>
      <point x="314.276" y="90" type="curve" smooth="yes" name="dv02"/>
      <point x="242.116" y="90"/>
      <point x="190" y="158.213"/>
      <point x="190" y="256.52" type="curve" smooth="yes" name="sh02"/>
      <point x="190" y="331.755"/>
      <point x="233.096" y="410"/>
      <point x="313.273" y="410" type="curve" smooth="yes" name="sv01"/>
      <point x="380.422" y="410"/>
      <point x="415.5" y="357.837"/>
      <point x="415.5" y="255.517" type="curve" smooth="yes" name="ah01"/>
      <point x="415.5" y="148.182"/>
      <point x="380.422" y="90"/>
    </contour>
    <contour>
      <point x="348.999" y="-20" type="curve" smooth="yes" name="dv01"/>
      <point x="477.603" y="-20"/>
      <point x="560.5" y="91"/>
      <point x="560.5" y="255" type="curve" smooth="yes" name="sh03"/>
      <point x="560.5" y="416"/>
      <point x="480.599" y="520"/>
      <point x="348.504" y="520" type="curve" smooth="yes" name="at01"/>
      <point x="222.919" y="520"/>
      <point x="158" y="426"/>
      <point x="158" y="255" type="curve" smooth="yes"/>
      <point x="158" y="85"/>
      <point x="223.918" y="-20"/>
    </contour>
  </outline>
</glyph>
<glyph name="bracketright.case" format="2">
  <advance width="418"/>
  <outline>
    <contour>
      <point x="45" y="-157" type="line"/>
      <point x="346" y="-157" type="line"/>
      <point x="346" y="838" type="line"/>
      <point x="45" y="838" type="line"/>
      <point x="45" y="748" type="line"/>
      <point x="209" y="748" type="line"/>
      <point x="209" y="-67" type="line"/>
      <point x="45" y="-67" type="line"/>
    </contour>
  </outline>
</glyph>
<glyph name="ccedilla.ss09" format="2">
  <advance width="573"/>
  <anchor x="293" y="520" name="top"/>
  <anchor x="293" y="-218" name="bottom"/>
  <outline>
    <contour>
      <point x="406" y="167" type="line"/>
      <point x="402.987" y="123"/>
      <point x="363.817" y="90"/>
      <point x="304.561" y="90" type="curve" smooth="yes"/>
      <point x="222.204" y="90"/>
      <point x="175" y="146.352"/>
      <point x="175" y="246.981" type="curve" smooth="yes"/>
      <point x="175" y="349.623"/>
      <point x="223.207" y="410"/>
      <point x="303.552" y="410" type="curve" smooth="yes"/>
      <point x="362.806" y="410"/>
      <point x="401.974" y="377.835"/>
      <point x="408" y="333" type="curve"/>
      <point x="543" y="333" type="line"/>
      <point x="523" y="457.667"/>
      <point x="430" y="520"/>
      <point x="297" y="520" type="curve" smooth="yes"/>
      <point x="128" y="520"/>
      <point x="30" y="417"/>
      <point x="30" y="255" type="curve" smooth="yes"/>
      <point x="30" y="85"/>
      <point x="126" y="-20"/>
      <point x="296" y="-20" type="curve" smooth="yes"/>
      <point x="431" y="-20"/>
      <point x="529" y="47"/>
      <point x="541" y="167" type="curve"/>
    </contour>
    <contour>
      <point x="176" y="-205" type="line"/>
      <point x="200" y="-213"/>
      <point x="234" y="-218"/>
      <point x="273" y="-218" type="curve" smooth="yes"/>
      <point x="368" y="-218"/>
      <point x="417" y="-188"/>
      <point x="417" y="-135" type="curve" smooth="yes"/>
      <point x="417" y="-89"/>
      <point x="381" y="-64"/>
      <point x="319" y="-64" type="curve"/>
      <point x="363.665" y="16.274" type="line"/>
      <point x="277.665" y="16.274" type="line"/>
      <point x="220" y="-96" type="line"/>
      <point x="236" y="-94"/>
      <point x="249" y="-92"/>
      <point x="263" y="-92" type="curve" smooth="yes"/>
      <point x="297" y="-92"/>
      <point x="317" y="-105"/>
      <point x="317" y="-132" type="curve" smooth="yes"/>
      <point x="317" y="-158"/>
      <point x="297" y="-172"/>
      <point x="264" y="-172" type="curve" smooth="yes"/>
      <point x="244" y="-172"/>
      <point x="216" y="-167"/>
      <point x="196" y="-161" type="curve"/>
    </contour>
  </outline>
</glyph>
<glyph name="cent.osf" format="2">
  <advance width="563"/>
  <outline>
    <contour>
      <point x="277" y="540" type="line"/>
      <point x="327" y="540" type="line"/>
      <point x="327" y="660" type="line"/>
      <point x="277" y="660" type="line"/>
    </contour>
    <contour>
      <point x="278" y="-131" type="line"/>
      <point x="326" y="-131" type="line"/>
      <point x="326" y="-10" type="line"/>
      <point x="278" y="-11" type="line"/>
    </contour>
    <contour>
      <point x="443" y="145" type="line"/>
      <point x="414" y="111.389"/>
      <point x="370" y="90"/>
      <point x="314" y="90" type="curve" smooth="yes" name="dv02"/>
      <point x="209" y="90"/>
      <point x="184" y="170.346"/>
      <point x="184" y="270.503" type="curve" smooth="yes"/>
      <point x="184" y="384.969"/>
      <point x="222" y="440"/>
      <point x="297" y="440" type="curve" smooth="yes" name="sv01"/>
      <point x="352" y="440"/>
      <point x="404" y="420.648"/>
      <point x="435" y="385" type="curve"/>
      <point x="513" y="463" type="line"/>
      <point x="463" y="520"/>
      <point x="386" y="550"/>
      <point x="293" y="550" type="curve" smooth="yes" name="at01"/>
      <point x="131" y="550"/>
      <point x="39" y="440.222"/>
      <point x="39" y="270.278" type="curve" smooth="yes"/>
      <point x="39" y="89.778"/>
      <point x="131" y="-20"/>
      <point x="292" y="-20" type="curve" smooth="yes" name="dv01"/>
      <point x="395" y="-20"/>
      <point x="471" y="10"/>
      <point x="521" y="67" type="curve"/>
    </contour>
  </outline>
</glyph>
<glyph name="cent.ss12" format="2">
  <advance width="570"/>
  <outline>
    <contour>
      <point x="278" y="610" type="line"/>
      <point x="328" y="610" type="line"/>
      <point x="328" y="730" type="line"/>
      <point x="278" y="730" type="line"/>
    </contour>
    <contour>
      <point x="279" y="-31" type="line"/>
      <point x="327" y="-31" type="line"/>
      <point x="327" y="90" type="line"/>
      <point x="279" y="89" type="line"/>
    </contour>
    <contour>
      <point x="513" y="275" type="line"/>
      <point x="462" y="218"/>
      <point x="408" y="191"/>
      <point x="344" y="191" type="curve" smooth="yes"/>
      <point x="248" y="191"/>
      <point x="194" y="256"/>
      <point x="194" y="356" type="curve" smooth="yes"/>
      <point x="194" y="454"/>
      <point x="244" y="511"/>
      <point x="343" y="511" type="curve" smooth="yes"/>
      <point x="402" y="511"/>
      <point x="446" y="492"/>
      <point x="514" y="438" type="curve"/>
      <point x="521" y="522" type="line"/>
      <point x="468" y="587"/>
      <point x="397" y="621"/>
      <point x="314" y="621" type="curve" smooth="yes"/>
      <point x="146" y="621"/>
      <point x="49" y="512"/>
      <point x="49" y="356" type="curve" smooth="yes"/>
      <point x="49" y="192"/>
      <point x="144" y="81"/>
      <point x="313" y="81" type="curve" smooth="yes"/>
      <point x="392" y="81"/>
      <point x="457" y="116"/>
      <point x="520" y="192" type="curve"/>
    </contour>
  </outline>
</glyph>
<glyph name="dollar.ss12" format="2">
  <advance width="590"/>
  <outline>
    <contour>
      <point x="52.648" y="114.531" type="line"/>
      <point x="100.263" y="52.05"/>
      <point x="217.338" y="-0.645"/>
      <point x="314.735" y="-0.645" type="curve" smooth="yes"/>
      <point x="463.586" y="-0.645"/>
      <point x="550.5" y="81.649"/>
      <point x="550.5" y="203.066" type="curve" smooth="yes"/>
      <point x="550.5" y="333.639"/>
      <point x="443.068" y="372.478"/>
      <point x="345.42" y="403.195" type="curve" smooth="yes"/>
      <point x="269.269" y="427.15"/>
      <point x="197.5" y="444.682"/>
      <point x="197.5" y="506.609" type="curve" smooth="yes"/>
      <point x="197.5" y="555.935"/>
      <point x="239.013" y="586.9"/>
      <point x="316.13" y="586.9" type="curve" smooth="yes"/>
      <point x="373.485" y="586.9"/>
      <point x="437.334" y="564.64"/>
      <point x="513.086" y="513.036" type="curve"/>
      <point x="520.662" y="599.076" type="line"/>
      <point x="473.046" y="661.557"/>
      <point x="388.636" y="700.48"/>
      <point x="291.24" y="700.48" type="curve" smooth="yes"/>
      <point x="129.894" y="700.48"/>
      <point x="52.5" y="624.515"/>
      <point x="52.5" y="507.72" type="curve" smooth="yes"/>
      <point x="52.5" y="377.957"/>
      <point x="162.324" y="338.353"/>
      <point x="259.458" y="306.674" type="curve" smooth="yes"/>
      <point x="336.468" y="281.559"/>
      <point x="405.5" y="262.831"/>
      <point x="405.5" y="198.164" type="curve" smooth="yes"/>
      <point x="405.5" y="142.14"/>
      <point x="376.458" y="112.704"/>
      <point x="304.354" y="112.704" type="curve" smooth="yes"/>
      <point x="246.999" y="112.704"/>
      <point x="135.975" y="148.967"/>
      <point x="60.223" y="200.571" type="curve"/>
    </contour>
    <contour>
      <point x="280" y="-101" type="line"/>
      <point x="318" y="-101" type="line"/>
      <point x="318" y="780" type="line"/>
      <point x="280" y="780" type="line"/>
    </contour>
  </outline>
</glyph>
<glyph name="e.ss09" format="2">
  <advance width="587"/>
  <anchor x="290" y="520" name="top"/>
  <anchor x="290" y="-20" name="bottom"/>
  <anchor x="409" y="-2" name="ogonek"/>
  <outline>
    <contour>
      <point x="177" y="308" type="line"/>
      <point x="177" y="365"/>
      <point x="230" y="410"/>
      <point x="297" y="410" type="curve" smooth="yes"/>
      <point x="361" y="410"/>
      <point x="408" y="367"/>
      <point x="408" y="308" type="curve"/>
    </contour>
    <contour>
      <point x="550" y="221" type="line"/>
      <point x="550" y="397"/>
      <point x="468" y="520"/>
      <point x="297" y="520" type="curve" smooth="yes"/>
      <point x="126" y="520"/>
      <point x="30" y="401"/>
      <point x="30" y="255" type="curve" smooth="yes"/>
      <point x="30" y="95"/>
      <point x="135" y="-20"/>
      <point x="300" y="-20" type="curve" smooth="yes"/>
      <point x="438" y="-20"/>
      <point x="525" y="50"/>
      <point x="545" y="167" type="curve"/>
      <point x="411" y="167" type="line"/>
      <point x="407" y="114"/>
      <point x="355" y="90"/>
      <point x="300" y="90" type="curve" smooth="yes"/>
      <point x="234" y="90"/>
      <point x="177" y="131.315"/>
      <point x="177" y="221" type="curve"/>
    </contour>
  </outline>
</glyph>
<glyph name="eogonek.ss09" format="2">
  <advance width="595"/>
  <anchor x="298" y="520" name="top"/>
  <anchor x="298" y="-20" name="bottom"/>
  <outline>
    <contour>
      <point x="185" y="308" type="line"/>
      <point x="185" y="365"/>
      <point x="238" y="410"/>
      <point x="305" y="410" type="curve" smooth="yes"/>
      <point x="369" y="410"/>
      <point x="416" y="367"/>
      <point x="416" y="308" type="curve"/>
    </contour>
    <contour>
      <point x="558" y="221" type="line"/>
      <point x="558" y="397"/>
      <point x="476" y="520"/>
      <point x="305" y="520" type="curve" smooth="yes"/>
      <point x="134" y="520"/>
      <point x="38" y="401"/>
      <point x="38" y="255" type="curve" smooth="yes"/>
      <point x="38" y="95"/>
      <point x="143" y="-20"/>
      <point x="308" y="-20" type="curve" smooth="yes"/>
      <point x="446" y="-20"/>
      <point x="533" y="50"/>
      <point x="553" y="167" type="curve"/>
      <point x="419" y="167" type="line"/>
      <point x="415" y="114"/>
      <point x="363" y="90"/>
      <point x="308" y="90" type="curve" smooth="yes"/>
      <point x="242" y="90"/>
      <point x="185" y="131.315"/>
      <point x="185" y="221" type="curve"/>
    </contour>
    <contour>
      <point x="423" y="-182" type="line"/>
      <point x="380" y="-168"/>
      <point x="359" y="-137"/>
      <point x="359" y="-103" type="curve" smooth="yes"/>
      <point x="359" y="-66"/>
      <point x="383" y="-24"/>
      <point x="422" y="0" type="curve"/>
      <point x="389" y="3" type="line"/>
      <point x="300" y="-13"/>
      <point x="249" y="-55"/>
      <point x="249" y="-108" type="curve" smooth="yes"/>
      <point x="249" y="-158"/>
      <point x="293" y="-195"/>
      <point x="366" y="-205" type="curve"/>
    </contour>
  </outline>
</glyph>
<glyph name="f_eth" format="2">
  <advance width="961"/>
  <outline>
    <contour>
      <point x="931" y="263.02" type="curve" smooth="yes"/>
      <point x="931" y="408.53"/>
      <point x="859.18" y="527.58"/>
      <point x="757.44" y="618.13" type="curve"/>
      <point x="866.92" y="658.19" type="line"/>
      <point x="848.92" y="703.19" type="line"/>
      <point x="722.23" y="647.45" type="line"/>
      <point x="603.04" y="732.14"/>
      <point x="479.75" y="755"/>
      <point x="336.54" y="755" type="curve" smooth="yes"/>
      <point x="190.03" y="755"/>
      <point x="109" y="703.58"/>
      <point x="109" y="566" type="curve" smooth="yes"/>
      <point x="109" y="500" type="line" name="dv04"/>
      <point x="22" y="500" type="line"/>
      <point x="22" y="390" type="line"/>
      <point x="109" y="390" type="line" name="dv03"/>
      <point x="109" y="0" type="line" name="ab01"/>
      <point x="254" y="0" type="line"/>
      <point x="254" y="390" type="line" name="sv01"/>
      <point x="390" y="390" type="line"/>
      <point x="390" y="500" type="line" name="sv02"/>
      <point x="254" y="500" type="line"/>
      <point x="254" y="564.11" type="line" smooth="yes"/>
      <point x="254" y="618.64"/>
      <point x="281.37" y="645"/>
      <point x="382.46" y="645" type="curve" smooth="yes"/>
      <point x="470.92" y="645"/>
      <point x="546.28" y="630.51"/>
      <point x="609.13" y="601.16" type="curve"/>
      <point x="493" y="558" type="line"/>
      <point x="511" y="513" type="line"/>
      <point x="652.79" y="577.07" type="line"/>
      <point x="713.21" y="538.15"/>
      <point x="759.67" y="482.36"/>
      <point x="792.88" y="409.25" type="curve"/>
      <point x="767.96" y="446.92"/>
      <point x="716.31" y="471"/>
      <point x="657.69" y="471" type="curve" smooth="yes"/>
      <point x="515.91" y="471"/>
      <point x="419" y="374"/>
      <point x="419" y="231" type="curve" smooth="yes"/>
      <point x="419" y="85"/>
      <point x="521.78" y="-20"/>
      <point x="674.04" y="-20" type="curve" smooth="yes"/>
      <point x="825.36" y="-20"/>
      <point x="931" y="88.77"/>
    </contour>
    <contour>
      <point x="672.31" y="91" type="curve" smooth="yes"/>
      <point x="607.86" y="91"/>
      <point x="564" y="139"/>
      <point x="564" y="225" type="curve" smooth="yes"/>
      <point x="564" y="309"/>
      <point x="605.16" y="361"/>
      <point x="674.1" y="361" type="curve" smooth="yes"/>
      <point x="740.34" y="361"/>
      <point x="786" y="314"/>
      <point x="786" y="231" type="curve" smooth="yes"/>
      <point x="786" y="150"/>
      <point x="743.03" y="91"/>
    </contour>
  </outline>
</glyph>
<glyph name="five.ss09" format="2">
  <advance width="594"/>
  <outline>
    <contour>
      <point x="27" y="198" type="line"/>
      <point x="52" y="57"/>
      <point x="152" y="-20"/>
      <point x="301" y="-20" type="curve" smooth="yes"/>
      <point x="464" y="-20"/>
      <point x="564" y="72"/>
      <point x="564" y="224" type="curve" smooth="yes"/>
      <point x="564" y="366"/>
      <point x="476" y="456"/>
      <point x="341" y="456" type="curve" smooth="yes"/>
      <point x="269" y="456"/>
      <point x="231" y="430"/>
      <point x="205" y="408" type="curve"/>
      <point x="232" y="580" type="line"/>
      <point x="497" y="580" type="line"/>
      <point x="514" y="700" type="line"/>
      <point x="101" y="700" type="line"/>
      <point x="42" y="284" type="line"/>
      <point x="187" y="284" type="line"/>
      <point x="208" y="328"/>
      <point x="249" y="353"/>
      <point x="306" y="353" type="curve" smooth="yes"/>
      <point x="381" y="353"/>
      <point x="418" y="311"/>
      <point x="418" y="235" type="curve" smooth="yes"/>
      <point x="418" y="155"/>
      <point x="378" y="100"/>
      <point x="288" y="100" type="curve" smooth="yes"/>
      <point x="221" y="100"/>
      <point x="182" y="131"/>
      <point x="170" y="198" type="curve"/>
    </contour>
  </outline>
</glyph>
<glyph name="germandbls.ss09" format="2">
  <advance width="710"/>
  <outline>
    <contour>
      <point x="219" y="0" type="line"/>
      <point x="219" y="482" type="line" smooth="yes"/>
      <point x="219" y="587"/>
      <point x="255.027" y="641"/>
      <point x="335.216" y="641" type="curve" smooth="yes"/>
      <point x="395.649" y="641"/>
      <point x="434" y="611"/>
      <point x="434" y="560" type="curve" smooth="yes"/>
      <point x="434" y="475"/>
      <point x="362" y="465"/>
      <point x="362" y="357" type="curve" smooth="yes"/>
      <point x="362" y="215"/>
      <point x="517" y="213"/>
      <point x="517" y="140" type="curve" smooth="yes"/>
      <point x="517" y="114"/>
      <point x="502" y="90"/>
      <point x="458" y="90" type="curve" smooth="yes"/>
      <point x="427" y="90"/>
      <point x="409" y="101"/>
      <point x="401" y="127" type="curve"/>
      <point x="257" y="127" type="line"/>
      <point x="267" y="20"/>
      <point x="337" y="-20"/>
      <point x="449" y="-20" type="curve" smooth="yes"/>
      <point x="573" y="-20"/>
      <point x="662" y="29"/>
      <point x="662" y="141" type="curve" smooth="yes"/>
      <point x="662" y="299"/>
      <point x="507" y="267"/>
      <point x="507" y="374" type="curve" smooth="yes"/>
      <point x="507" y="446"/>
      <point x="578" y="461"/>
      <point x="578" y="573" type="curve" smooth="yes"/>
      <point x="578" y="692"/>
      <point x="470.608" y="751"/>
      <point x="331.316" y="751" type="curve" smooth="yes"/>
      <point x="183.519" y="751"/>
      <point x="74" y="685"/>
      <point x="74" y="535" type="curve" smooth="yes"/>
      <point x="74" y="0" type="line"/>
    </contour>
  </outline>
</glyph>
<glyph name="hbar.ss11" format="2">
  <advance width="625"/>
  <outline>
    <contour>
      <point x="74" y="0" type="line"/>
      <point x="219" y="0" type="line"/>
      <point x="219" y="700" type="line"/>
      <point x="74" y="700" type="line"/>
    </contour>
    <contour>
      <point x="219" y="197" type="line" name="iv01"/>
      <point x="219" y="313.604"/>
      <point x="261" y="390"/>
      <point x="336" y="390" type="curve" smooth="yes" name="sv01"/>
      <point x="386" y="390"/>
      <point x="416" y="363.936"/>
      <point x="416" y="258.68" type="curve" smooth="yes"/>
      <point x="416" y="0" type="line" name="ab01"/>
      <point x="561" y="0" type="line"/>
      <point x="561" y="294" type="line" smooth="yes"/>
      <point x="561" y="442"/>
      <point x="492" y="500"/>
      <point x="389" y="500" type="curve" smooth="yes" name="at01"/>
      <point x="301" y="500"/>
      <point x="230" y="436"/>
      <point x="211" y="341" type="curve"/>
      <point x="212" y="262" type="line"/>
    </contour>
    <contour>
      <point x="0.03" y="601" type="line"/>
      <point x="371.528" y="601" type="line"/>
      <point x="371.528" y="635" type="line"/>
      <point x="0.03" y="635" type="line"/>
    </contour>
  </outline>
</glyph>
<glyph name="oe.ss12" format="2">
  <advance width="924"/>
  <outline>
    <contour>
      <point x="283.76" y="-20" type="curve" smooth="yes" name="dv01"/>
      <point x="452.54" y="-20"/>
      <point x="534.99" y="84"/>
      <point x="534.99" y="255" type="curve" smooth="yes"/>
      <point x="534.99" y="416"/>
      <point x="451.57" y="520"/>
      <point x="283.76" y="520" type="curve" smooth="yes" name="at01"/>
      <point x="126.62" y="520"/>
      <point x="32.53" y="416"/>
      <point x="32.53" y="255" type="curve" smooth="yes"/>
      <point x="32.53" y="84"/>
      <point x="127.59" y="-20"/>
    </contour>
    <contour>
      <point x="283.76" y="90" type="curve" smooth="yes" name="dv02"/>
      <point x="213.92" y="90"/>
      <point x="176.09" y="146.352"/>
      <point x="176.09" y="255.031" type="curve" smooth="yes"/>
      <point x="176.09" y="359.686"/>
      <point x="211.01" y="410"/>
      <point x="283.76" y="410" type="curve" smooth="yes" name="sv01"/>
      <point x="357.48" y="410"/>
      <point x="391.43" y="357.673"/>
      <point x="391.43" y="253.019" type="curve" smooth="yes"/>
      <point x="391.43" y="145.346"/>
      <point x="360.39" y="90"/>
    </contour>
    <contour>
      <point x="540.36" y="318" type="line"/>
      <point x="540.36" y="368"/>
      <point x="582.07" y="409"/>
      <point x="645.12" y="409" type="curve" smooth="yes"/>
      <point x="705.26" y="409"/>
      <point x="745.03" y="369"/>
      <point x="745.03" y="318" type="curve"/>
    </contour>
    <contour>
      <point x="854.64" y="174" type="line"/>
      <point x="805.17" y="117"/>
      <point x="752.79" y="90"/>
      <point x="690.71" y="90" type="curve" smooth="yes"/>
      <point x="594.68" y="90"/>
      <point x="537.45" y="144"/>
      <point x="537.45" y="236" type="curve"/>
      <point x="889.56" y="236" type="line"/>
      <point x="899.56" y="416"/>
      <point x="794.5" y="520"/>
      <point x="647.06" y="520" type="curve" smooth="yes"/>
      <point x="493.8" y="520"/>
      <point x="394.86" y="410"/>
      <point x="394.86" y="255" type="curve" smooth="yes"/>
      <point x="394.86" y="93"/>
      <point x="494.77" y="-20"/>
      <point x="660.64" y="-20" type="curve" smooth="yes"/>
      <point x="737.27" y="-20"/>
      <point x="800.32" y="15"/>
      <point x="861.43" y="91" type="curve"/>
    </contour>
  </outline>
</glyph>
<glyph name="question.ss10" format="2">
  <advance width="551"/>
  <outline>
    <contour>
      <point x="244" y="-20" type="curve" smooth="yes"/>
      <point x="290" y="-20"/>
      <point x="324" y="16"/>
      <point x="324" y="58" type="curve" smooth="yes"/>
      <point x="324" y="104"/>
      <point x="290" y="138"/>
      <point x="244" y="138" type="curve" smooth="yes"/>
      <point x="199" y="138"/>
      <point x="166" y="104"/>
      <point x="166" y="58" type="curve" smooth="yes"/>
      <point x="166" y="16"/>
      <point x="199" y="-20"/>
    </contour>
    <contour>
      <point x="168" y="250" type="line"/>
      <point x="314" y="250" type="line"/>
      <point x="314" y="332" type="line"/>
      <point x="418" y="364"/>
      <point x="521" y="452"/>
      <point x="521" y="567" type="curve" smooth="yes"/>
      <point x="521" y="690"/>
      <point x="430" y="767"/>
      <point x="282" y="767" type="curve" smooth="yes"/>
      <point x="176" y="767"/>
      <point x="87" y="720"/>
      <point x="27" y="630" type="curve"/>
      <point x="66" y="492" type="line"/>
      <point x="142" y="620"/>
      <point x="201" y="646"/>
      <point x="285" y="646" type="curve" smooth="yes"/>
      <point x="346" y="646"/>
      <point x="375" y="615"/>
      <point x="375" y="550" type="curve" smooth="yes"/>
      <point x="375" y="468"/>
      <point x="319" y="410"/>
      <point x="168" y="345" type="curve"/>
    </contour>
  </outline>
</glyph>
<glyph name="question.ss12" format="2">
  <advance width="551"/>
  <outline>
    <contour>
      <point x="241" y="-20" type="curve" smooth="yes"/>
      <point x="287" y="-20"/>
      <point x="321" y="16"/>
      <point x="321" y="58" type="curve" smooth="yes"/>
      <point x="321" y="104"/>
      <point x="287" y="138"/>
      <point x="241" y="138" type="curve" smooth="yes"/>
      <point x="196" y="138"/>
      <point x="163" y="104"/>
      <point x="163" y="58" type="curve" smooth="yes"/>
      <point x="163" y="16"/>
      <point x="196" y="-20"/>
    </contour>
    <contour>
      <point x="168" y="250" type="line"/>
      <point x="314" y="250" type="line"/>
      <point x="314" y="332" type="line"/>
      <point x="418" y="364"/>
      <point x="521" y="452"/>
      <point x="521" y="567" type="curve" smooth="yes"/>
      <point x="521" y="690"/>
      <point x="420" y="767"/>
      <point x="289" y="767" type="curve" smooth="yes"/>
      <point x="190" y="767"/>
      <point x="105" y="725"/>
      <point x="32" y="632" type="curve"/>
      <point x="42" y="537" type="line"/>
      <point x="108" y="607"/>
      <point x="185" y="647"/>
      <point x="268" y="647" type="curve" smooth="yes"/>
      <point x="335" y="647"/>
      <point x="375" y="614"/>
      <point x="375" y="545" type="curve" smooth="yes"/>
      <point x="375" y="462"/>
      <point x="319" y="407"/>
      <point x="168" y="345" type="curve"/>
    </contour>
  </outline>
</glyph>
<glyph name="scedilla.ss09" format="2">
  <advance width="510"/>
  <anchor x="245" y="520" name="top"/>
  <anchor x="240" y="-218" name="bottom"/>
  <outline>
    <contour>
      <point x="37" y="150" type="line"/>
      <point x="48" y="40.355"/>
      <point x="130" y="-20"/>
      <point x="256" y="-20" type="curve" smooth="yes"/>
      <point x="385" y="-20"/>
      <point x="462" y="43"/>
      <point x="462" y="144" type="curve" smooth="yes"/>
      <point x="462" y="235"/>
      <point x="399" y="297"/>
      <point x="261" y="312" type="curve" smooth="yes"/>
      <point x="207" y="318"/>
      <point x="182" y="329"/>
      <point x="182" y="361" type="curve" smooth="yes"/>
      <point x="182" y="390"/>
      <point x="202" y="410"/>
      <point x="244" y="410" type="curve" smooth="yes"/>
      <point x="287" y="410"/>
      <point x="315" y="388.644"/>
      <point x="321" y="350" type="curve"/>
      <point x="462" y="350" type="line"/>
      <point x="448" y="459.645"/>
      <point x="369" y="520"/>
      <point x="243" y="520" type="curve" smooth="yes"/>
      <point x="112" y="520"/>
      <point x="37" y="455"/>
      <point x="37" y="355" type="curve" smooth="yes"/>
      <point x="37" y="264"/>
      <point x="99" y="203"/>
      <point x="238" y="188" type="curve" smooth="yes"/>
      <point x="292" y="182"/>
      <point x="317" y="171"/>
      <point x="317" y="138" type="curve" smooth="yes"/>
      <point x="317" y="108"/>
      <point x="295" y="90"/>
      <point x="254" y="90" type="curve" smooth="yes"/>
      <point x="212" y="90"/>
      <point x="182" y="109.322"/>
      <point x="178" y="150" type="curve"/>
    </contour>
    <contour>
      <point x="123" y="-205" type="line"/>
      <point x="147" y="-213"/>
      <point x="181" y="-218"/>
      <point x="220" y="-218" type="curve" smooth="yes"/>
      <point x="315" y="-218"/>
      <point x="364" y="-188"/>
      <point x="364" y="-135" type="curve" smooth="yes"/>
      <point x="364" y="-89"/>
      <point x="328" y="-64"/>
      <point x="266" y="-64" type="curve"/>
      <point x="310.665" y="16.274" type="line"/>
      <point x="224.665" y="16.274" type="line"/>
      <point x="167" y="-96" type="line"/>
      <point x="183" y="-94"/>
      <point x="196" y="-92"/>
      <point x="210" y="-92" type="curve" smooth="yes"/>
      <point x="244" y="-92"/>
      <point x="264" y="-105"/>
      <point x="264" y="-132" type="curve" smooth="yes"/>
      <point x="264" y="-158"/>
      <point x="244" y="-172"/>
      <point x="211" y="-172" type="curve" smooth="yes"/>
      <point x="191" y="-172"/>
      <point x="163" y="-167"/>
      <point x="143" y="-161" type="curve"/>
    </contour>
  </outline>
</glyph>
<glyph name="schwa.ss12" format="2">
  <advance width="552"/>
  <anchor x="271" y="-20" name="bottom"/>
  <anchor x="271" y="520" name="top"/>
  <outline>
    <contour>
      <point x="379" y="200" type="line"/>
      <point x="373" y="139"/>
      <point x="337" y="90"/>
      <point x="273" y="90" type="curve" smooth="yes"/>
      <point x="213" y="90"/>
      <point x="178" y="134"/>
      <point x="171" y="200" type="curve"/>
    </contour>
    <contour>
      <point x="29" y="290" type="line"/>
      <point x="27" y="277.79"/>
      <point x="25" y="265.21"/>
      <point x="25" y="253" type="curve" smooth="yes"/>
      <point x="25" y="108"/>
      <point x="107" y="-20"/>
      <point x="272" y="-20" type="curve" smooth="yes"/>
      <point x="427" y="-20"/>
      <point x="526" y="92"/>
      <point x="526" y="255" type="curve" smooth="yes"/>
      <point x="526" y="397"/>
      <point x="451" y="520"/>
      <point x="271" y="520" type="curve" smooth="yes"/>
      <point x="173" y="520"/>
      <point x="93" y="483"/>
      <point x="48" y="421" type="curve"/>
      <point x="55" y="337" type="line"/>
      <point x="135.853" y="388"/>
      <point x="204" y="410"/>
      <point x="262" y="410" type="curve" smooth="yes"/>
      <point x="341" y="410"/>
      <point x="374.414" y="368"/>
      <point x="379" y="290" type="curve"/>
    </contour>
  </outline>
</glyph>
<glyph name="sigmafinal.ss09" format="2">
  <advance width="582"/>
  <anchor x="296" y="519" name="topgr"/>
  <outline>
    <contour>
      <point x="511" y="-200" type="line"/>
      <point x="533" y="-180"/>
      <point x="559" y="-139"/>
      <point x="559" y="-78" type="curve" smooth="yes"/>
      <point x="559" y="31"/>
      <point x="477" y="91"/>
      <point x="349" y="91" type="curve" smooth="yes"/>
      <point x="216" y="91"/>
      <point x="175" y="156.204"/>
      <point x="175" y="249.497" type="curve" smooth="yes"/>
      <point x="175" y="349.811"/>
      <point x="222" y="410"/>
      <point x="304" y="410" type="curve" smooth="yes"/>
      <point x="364" y="410"/>
      <point x="401" y="377.835"/>
      <point x="407" y="333" type="curve"/>
      <point x="542" y="333" type="line"/>
      <point x="522" y="457.667"/>
      <point x="431" y="520"/>
      <point x="300" y="520" type="curve" smooth="yes"/>
      <point x="132" y="520"/>
      <point x="30" y="417"/>
      <point x="30" y="248" type="curve" smooth="yes"/>
      <point x="30" y="87"/>
      <point x="122" y="-20"/>
      <point x="309" y="-20" type="curve" smooth="yes"/>
      <point x="360" y="-20"/>
      <point x="414" y="-28"/>
      <point x="414" y="-104" type="curve" smooth="yes"/>
      <point x="414" y="-137"/>
      <point x="404" y="-163"/>
      <point x="372" y="-200" type="curve"/>
    </contour>
  </outline>
</glyph>
<glyph name="sigmafinal.ss10" format="2">
  <advance width="567"/>
  <anchor x="288" y="519" name="topgr"/>
  <outline>
    <contour>
      <point x="494" y="-200" type="line"/>
      <point x="525" y="-169"/>
      <point x="544" y="-126"/>
      <point x="544" y="-79" type="curve" smooth="yes"/>
      <point x="544" y="21"/>
      <point x="456" y="90"/>
      <point x="330" y="90" type="curve" smooth="yes"/>
      <point x="218" y="90"/>
      <point x="175" y="145"/>
      <point x="175" y="250" type="curve" smooth="yes"/>
      <point x="175" y="352"/>
      <point x="216" y="410"/>
      <point x="304" y="410" type="curve" smooth="yes"/>
      <point x="370" y="410"/>
      <point x="427" y="377"/>
      <point x="483" y="299" type="curve"/>
      <point x="517" y="417" type="line"/>
      <point x="471" y="482"/>
      <point x="393" y="520"/>
      <point x="299" y="520" type="curve" smooth="yes"/>
      <point x="141" y="520"/>
      <point x="30" y="413"/>
      <point x="30" y="251" type="curve" smooth="yes"/>
      <point x="30" y="87"/>
      <point x="145" y="-20"/>
      <point x="289" y="-20" type="curve" smooth="yes"/>
      <point x="365" y="-20"/>
      <point x="399" y="-50"/>
      <point x="399" y="-103" type="curve" smooth="yes"/>
      <point x="399" y="-142"/>
      <point x="381" y="-174"/>
      <point x="353" y="-200" type="curve"/>
    </contour>
  </outline>
</glyph>
<glyph name="slash.case" format="2">
  <advance width="315"/>
  <outline>
    <contour>
      <point x="-40" y="0" type="line"/>
      <point x="-10" y="0" type="line"/>
      <point x="362" y="700" type="line"/>
      <point x="332" y="700" type="line"/>
    </contour>
  </outline>
</glyph>
<glyph name="softcyr.loclBGR" format="2">
  <advance width="516"/>
  <anchor x="258" y="-20" name="bottom"/>
  <anchor x="258" y="520" name="top"/>
  <outline>
    <contour>
      <point x="101" y="242" type="line"/>
      <point x="262.252" y="242" type="line" smooth="yes"/>
      <point x="319.539" y="242"/>
      <point x="345" y="213.5"/>
      <point x="345" y="167.357" type="curve" smooth="yes"/>
      <point x="345" y="114.547"/>
      <point x="322.329" y="90"/>
      <point x="273.555" y="90" type="curve" smooth="yes"/>
      <point x="225.657" y="90"/>
      <point x="204.868" y="108.128"/>
      <point x="204.882" y="149.923" type="curve" smooth="yes"/>
      <point x="205" y="500" type="line"/>
      <point x="60" y="500" type="line"/>
      <point x="59.882" y="157.84" type="line" smooth="yes"/>
      <point x="59.842" y="41.348"/>
      <point x="135.265" y="-20"/>
      <point x="278.409" y="-20" type="curve" smooth="yes"/>
      <point x="411.751" y="-20"/>
      <point x="490" y="50.857"/>
      <point x="490" y="171.602" type="curve" smooth="yes"/>
      <point x="490" y="284.771"/>
      <point x="414.275" y="352"/>
      <point x="288.757" y="352" type="curve" smooth="yes"/>
      <point x="101" y="352" type="line"/>
    </contour>
  </outline>
</glyph>
<glyph name="tsecyr.loclBGR" format="2">
  <advance width="660"/>
  <outline>
    <contour>
      <point x="386" y="213" type="line"/>
      <point x="370" y="283" type="line"/>
      <point x="370" y="159.359"/>
      <point x="334" y="90"/>
      <point x="269" y="90" type="curve" smooth="yes"/>
      <point x="221" y="90"/>
      <point x="199" y="128.093"/>
      <point x="199" y="212.298" type="curve" smooth="yes"/>
      <point x="199" y="500" type="line"/>
      <point x="54" y="500" type="line"/>
      <point x="54" y="196" type="line" smooth="yes"/>
      <point x="54" y="51"/>
      <point x="112" y="-20"/>
      <point x="220" y="-20" type="curve" smooth="yes"/>
      <point x="310" y="-20"/>
      <point x="361" y="30"/>
      <point x="388" y="130" type="curve"/>
    </contour>
    <contour>
      <point x="370" y="0" type="line" name="ab01"/>
      <point x="515" y="0" type="line"/>
      <point x="515" y="500" type="line"/>
      <point x="370" y="500" type="line" name="av01"/>
    </contour>
    <contour>
      <point x="471" y="0" type="line"/>
      <point x="538" y="0"/>
      <point x="524" y="-72"/>
      <point x="524" y="-140" type="curve"/>
      <point x="630" y="-140" type="line"/>
      <point x="630" y="69"/>
      <point x="609" y="108"/>
      <point x="509" y="108" type="curve"/>
    </contour>
  </outline>
</glyph>
<glyph name="two.ss10" format="2">
  <advance width="612"/>
  <outline>
    <contour>
      <point x="47" y="0" type="line"/>
      <point x="566" y="0" type="line"/>
      <point x="566" y="120" type="line"/>
      <point x="47" y="120" type="line"/>
    </contour>
    <contour>
      <point x="47" y="84" type="line"/>
      <point x="407" y="153"/>
      <point x="566" y="279.956"/>
      <point x="566" y="486.529" type="curve" smooth="yes"/>
      <point x="566" y="639.307"/>
      <point x="478" y="720"/>
      <point x="326" y="720" type="curve" smooth="yes"/>
      <point x="205" y="720"/>
      <point x="116" y="673"/>
      <point x="52" y="583" type="curve"/>
      <point x="91" y="445" type="line"/>
      <point x="173" y="565"/>
      <point x="243" y="599"/>
      <point x="317" y="599" type="curve" smooth="yes"/>
      <point x="389" y="599"/>
      <point x="421" y="561.182"/>
      <point x="421" y="484.401" type="curve" smooth="yes"/>
      <point x="421" y="354.905"/>
      <point x="332" y="265"/>
      <point x="47" y="186" type="curve"/>
    </contour>
  </outline>
</glyph>
<glyph name="two.ss12" format="2">
  <advance width="612"/>
  <outline>
    <contour>
      <point x="47" y="0" type="line"/>
      <point x="566" y="0" type="line"/>
      <point x="566" y="120" type="line"/>
      <point x="47" y="120" type="line"/>
    </contour>
    <contour>
      <point x="47" y="84" type="line"/>
      <point x="407" y="153"/>
      <point x="566" y="289.956"/>
      <point x="566" y="496.514" type="curve" smooth="yes"/>
      <point x="566" y="649.307"/>
      <point x="479" y="720"/>
      <point x="334.432" y="720" type="curve" smooth="yes"/>
      <point x="223" y="720"/>
      <point x="137" y="678"/>
      <point x="63" y="585" type="curve"/>
      <point x="73" y="490" type="line"/>
      <point x="155" y="568"/>
      <point x="231" y="600"/>
      <point x="305" y="600" type="curve" smooth="yes"/>
      <point x="381" y="600"/>
      <point x="421" y="562.2"/>
      <point x="421" y="478.582" type="curve" smooth="yes"/>
      <point x="421" y="354.873"/>
      <point x="332" y="255"/>
      <point x="47" y="176" type="curve"/>
    </contour>
  </outline>
</glyph>
